<svg xmlns="http://www.w3.org/2000/svg" xmlns:xlink="http://www.w3.org/1999/xlink" viewBox="0 0 309.189 350.063">
	<defs>
		<linearGradient id="linear-gradient" y1="1" x2="1" gradientUnits="objectBoundingBox">
			<stop offset="0" stop-color="#4affb2"/>
			<stop offset="1" stop-color="#1d73bc"/>
		</linearGradient>
	</defs>
	<path id="path892" d="M205.306,572.867C129.257,565.68,67.115,509.394,50.434,432.589c-3.235-14.9-3.224-53.674.019-68.616,7.217-33.247,22.816-62.947,45.458-86.55,26.415-27.536,57.507-44.448,95.391-51.885,14.828-2.911,47.809-2.844,63.416.128,35.753,6.809,66.181,22.959,92.113,48.891,5.456,5.456,9.919,10.609,9.919,11.452s-1.877,3.235-4.171,5.315-6.607,5.978-9.585,8.661l-5.414,4.878-10.629-10.49c-21.166-20.888-50.057-36.151-78.009-41.211-13.7-2.481-43.186-2.166-55.187.589-46.852,10.755-83.1,38.89-103.294,80.176-11.511,23.533-15.454,43.03-14.324,70.819.97,23.85,4.48,38.069,14.344,58.1,17.248,35.025,49.707,63.619,85.307,75.15,17.966,5.819,26.821,7.139,47.487,7.074,27.046-.084,42.731-3.715,65.658-15.2,11.081-5.55,29.315-17.885,29.315-19.831,0-.564-4.011-5.216-8.914-10.337l-8.914-9.312-4.022,3.384c-6.669,5.612-21.469,13.709-32.241,17.641-70.755,25.822-146.865-18.487-160.232-93.282-2.307-12.907-1.075-38.189,2.5-51.248,7.825-28.614,27.408-54.836,53.324-71.4,16.565-10.588,42.3-17.778,63.683-17.791,17.69-.01,41,5.967,56.318,14.439,14.86,8.221,37.219,27.379,37.219,31.89,0,1.26-1.248,3.165-2.773,4.233s-14.718,13.807-29.318,28.308-26.98,26.366-27.512,26.366-4.661-3.385-9.176-7.522c-13.847-12.688-27.982-14.867-42.533-6.557-11.225,6.411-16.919,16.332-16.919,29.48,0,8.359,2.159,15.014,6.876,21.2,3.739,4.9,15.2,12.127,19.321,12.177a15.589,15.589,0,0,1,5.648,1.616c2.958,1.522,3.071,2.075,2.81,13.778-.149,6.706-.725,12.653-1.28,13.215-1.969,1.995-17.553-1.663-27.055-6.349a61.995,61.995,0,0,1,.043-111.317c17.517-8.632,33.992-9.07,53.134-1.412l8.7,3.481,10.088-10.029c11.807-11.737,11.826-11.618-3.109-18.989a101.528,101.528,0,0,0-41.4-9.768c-27.024-.024-56.392,14.39-72.4,35.532-13.3,17.572-19.195,35-19.231,56.892-.081,49.278,37.261,88.924,86.655,92,26.924,1.678,51.621-8.131,72.293-28.715,5.2-5.175,10.185-9.409,11.083-9.409,1.531,0,54.021,53.439,56.188,57.2.687,1.193-2.323,5-9.626,12.166-33.787,33.168-71.334,49.736-117.149,51.693a224.4,224.4,0,0,1-25.027-.428Z" transform="translate(-48.014 -223.394)" fill="url(#linear-gradient)"/>
</svg>
